<?xml version="1.0" encoding="UTF-8"?>
<svg width="527px" height="532px" viewBox="0 0 527 532" version="1.1" xmlns="http://www.w3.org/2000/svg" xmlns:xlink="http://www.w3.org/1999/xlink">
    <!-- Generator: Sketch 47.1 (45422) - http://www.bohemiancoding.com/sketch -->
    <title>close</title>
    <desc>Created with Sketch.</desc>
    <defs></defs>
    <g id="Page-1" stroke="none" stroke-width="1" fill="none" fill-rule="evenodd">
        <g id="close" fill="#999999">
            <g id="Group" transform="translate(64.000000, 247.000000)">
                <path d="M1.52270377,6.39133191e-12 C0.527969366,4.05003439 0,8.28698102 0,12.6488415 C0,41.487501 23.078912,64.8658537 51.5481928,64.8658537 C80.0174735,64.8658537 103.096386,41.487501 103.096386,12.6488415 C103.096386,8.28698102 102.568416,4.05003439 101.573682,6.41797726e-12 C95.9916797,13.8634526 75.7114818,24.1365841 51.5481928,24.1365841 C27.3849038,24.1365841 7.10470585,13.8634526 1.52270377,-3.37507799e-14 Z" id="Combined-Shape"></path>
                <path d="M296.426318,6.36202202e-12 C295.431584,4.05003439 294.903614,8.28698102 294.903614,12.6488415 C294.903614,41.487501 317.982526,64.8658537 346.451807,64.8658537 C374.921088,64.8658537 398,41.487501 398,12.6488415 C398,8.28698102 397.472031,4.05003439 396.477296,6.35225206e-12 C390.895294,13.8634526 370.615096,24.1365841 346.451807,24.1365841 C322.288518,24.1365841 302.00832,13.8634526 296.426318,-5.5067062e-14 Z" id="Combined-Shape"></path>
                <path d="M153.14249,146.335011 L247.465758,146.335011 C248.103148,151.365673 248.103148,154.541071 247.465758,155.861204 C239.624004,172.1027 222.200209,177 200.304124,177 C178.694849,177 161.063209,171.680002 153.14249,155.861204 C152.420052,154.418393 152.420052,151.242995 153.14249,146.335011 Z" id="Path-2"></path>
            </g>
        </g>
    </g>
</svg>