<?xml version="1.0" encoding="iso-8859-1"?>
<!-- Generator: Adobe Illustrator 16.0.0, SVG Export Plug-In . SVG Version: 6.00 Build 0)  -->
<!DOCTYPE svg PUBLIC "-//W3C//DTD SVG 1.1//EN" "http://www.w3.org/Graphics/SVG/1.1/DTD/svg11.dtd">
<svg xmlns="http://www.w3.org/2000/svg" xmlns:xlink="http://www.w3.org/1999/xlink" version="1.1" id="Capa_1" x="0px" y="0px" width="512px" height="512px" viewBox="0 0 430.172 430.172" style="enable-background:new 0 0 430.172 430.172;" xml:space="preserve">
<g>
	<g>
		<path d="M215.086,146.664c14.83-17.288,33.027-31.307,53.279-41.319c-13.6-20.601-31.852-37.863-53.279-50.259    c-21.427,12.396-39.677,29.658-53.281,50.258C182.06,115.357,200.255,129.376,215.086,146.664z" fill="#666666"/>
		<path d="M160.943,224.518c20.263,9.801,38.41,22.631,54.143,38.26c15.73-15.627,33.879-28.459,54.144-38.26    c27.446-13.276,56.706-20.042,86.977-20.129c0.457-34.868-10.629-68.909-31.156-96.727    c-43.189,4.938-83.413,27.512-109.963,63.473c-26.547-35.961-66.769-58.536-109.964-63.473    c-20.527,27.817-31.613,61.858-31.154,96.727C104.235,204.475,133.496,211.241,160.943,224.518z" fill="#666666"/>
		<path d="M276.347,241.415c-24.356,11.782-44.95,28.211-61.261,47.692c-16.31-19.481-36.903-35.91-61.262-47.692    C103.505,217.076,47.604,217.57,0,238.066c13.483,50.047,47.799,94.177,98.119,118.517c37.802,18.284,78.75,22.552,116.967,14.855    c38.217,7.696,79.164,3.429,116.967-14.855c50.319-24.339,84.635-68.47,98.119-118.517    C382.566,217.57,326.666,217.076,276.347,241.415z" fill="#666666"/>
	</g>
</g>
<g>
</g>
<g>
</g>
<g>
</g>
<g>
</g>
<g>
</g>
<g>
</g>
<g>
</g>
<g>
</g>
<g>
</g>
<g>
</g>
<g>
</g>
<g>
</g>
<g>
</g>
<g>
</g>
<g>
</g>
</svg>
