<svg xmlns="http://www.w3.org/2000/svg" width="31" height="33" viewBox="0 0 31 33">
  <g fill="#666" fill-rule="evenodd">
    <path d="M0,8 C5.6162414,8.88464701 9.47235321,10.1030919 11.5683354,11.6553347 C15.1305708,14.2934554 18.08453,16.3740332 19.730547,19.5720997 C21.6755134,23.3509988 21.3543473,28.8553317 18.9842523,30.4335361 C13.0025668,34.416635 7.86173174,31.0634833 4.05492652,26.5290489 C3.2488842,25.5689404 2.01200723,23.0779592 1.7230132,20.1367313 C1.3990998,16.8401126 2.05756965,12.9931542 1.7230132,10.4047591 C1.51850273,8.82250317 0.944164995,8.02091682 0,8 Z"/>
    <path d="M17 14.3861415C19.3823132 12.4366561 21.3383607 11.1087276 22.8681427 10.4023561 24.3979247 9.6959846 27.0338713 8.90357576 30.7759824 8.02512958 29.5364786 9.40109517 28.9167266 10.4020617 28.9167266 11.028029 28.9167266 15.5204677 30.337952 17.5432823 29.4117805 22.3506227 28.9167266 24.9202253 27.2706362 27.1194839 24.4281836 29.434253 23.7051522 30.0230581 22.3706453 30.5449738 20.4246628 31 22.131208 28.3974168 22.6918212 25.6763643 22.1065024 22.8368426 21.5211836 19.997321 19.8190161 17.1804206 17 14.3861415zM8.80063654 1.32758441C12.2634314 3.7611295 14.5221979 5.6519347 15.5769362 7 16.6316744 8.3480653 17.6110415 9.88580919 18.5150373 11.6132316L16.0085242 13.5991789C14.3602967 12.0926766 12.9094392 11.020739 11.6559517 10.3833662 10.4024641 9.7459933 8.31867192 8.82235203 5.40457505 7.61244234 6.0968435 6.01493275 6.6444696 4.84560886 7.04745334 4.10447066 7.45043708 3.36333247 8.03483148 2.43770372 8.80063654 1.32758441zM15.4340672 5.05180877C16.5394319 3.90109805 17.3918298 3.10756002 17.9912609 2.67119466 18.590692 2.23482931 19.4859735 1.62987217 20.6771055.856323258 22.0426444 2.69062951 22.8958832 3.91598494 23.2368218 4.53238955 23.5777604 5.14879416 24.1176659 6.2954914 24.8565383 7.97248128 23.6017874 8.51167826 22.7331839 8.9018351 22.2507279 9.14295179 21.7682719 9.38406848 20.814742 9.90455788 19.3901383 10.70442 18.8843433 9.90435154 18.4180508 9.19940907 17.9912609 8.58959259 17.564471 7.97977611 16.7120731 6.80051484 15.4340672 5.05180877z"/>
  </g>
</svg>
